<?xml version="1.0" encoding="UTF-8" standalone="no"?>
<svg width="322px" height="322px" viewBox="0 0 322 322" version="1.1" xmlns="http://www.w3.org/2000/svg" xmlns:xlink="http://www.w3.org/1999/xlink" xmlns:sketch="http://www.bohemiancoding.com/sketch/ns">
    <!-- Generator: Sketch 3.3.3 (12072) - http://www.bohemiancoding.com/sketch -->
    <title>Artboard 4</title>
    <desc>Created with Sketch.</desc>
    <defs></defs>
    <g id="Page-1" stroke="none" stroke-width="1" fill="none" fill-rule="evenodd" sketch:type="MSPage">
        <g id="Artboard-4" sketch:type="MSArtboardGroup">
            <circle id="Oval-1" fill="#F28181" sketch:type="MSShapeGroup" cx="161" cy="161" r="161"></circle>
            <g id="Imported-Layers-+-Imported-Layers-Copy-2" sketch:type="MSLayerGroup" transform="translate(60.000000, 72.000000)">
                <path d="M131.57368,26.3701794 C128.741847,14.5810911 119.856322,5.03727498 108.435641,1.50872165 C104.620429,0.332537202 100.44292,-0.178520575 96.5066349,0.0554010914 C84.493524,0.76749998 73.8344066,7.77199776 68.1993907,18.6545222 C65.0616378,24.71206 63.7492346,32.0566366 64.6383416,38.5200144 C65.923018,47.8148778 71.8399234,59.977865 81.9860944,74.2066905 C84.6293855,77.9118594 87.936272,82.2295461 91.0213439,85.9920211 C93.2561263,88.7220466 96.3929549,92.3802433 97.3291975,93.3356583 C97.7146004,93.7377405 97.8088717,93.8091383 98.0306863,93.8758389 C98.4770883,94.0101794 98.9096268,93.9425394 99.2349549,93.6898289 C99.7663858,93.2830494 103.76367,88.6262233 106.694396,85.0121805 C120.255588,68.2731594 129.093977,52.9489416 131.680891,41.6943972 C132.315835,38.9352489 132.536725,37.0422683 132.532104,34.4277944 C132.533028,31.5530944 132.245594,29.1528139 131.57368,26.3701794 L131.57368,26.3701794 Z M114.776767,33.9392833 C114.085445,38.1508128 111.794284,41.9668361 108.398672,44.5587633 C105.28957,46.9299211 101.530736,48.1014083 97.6499045,47.9050644 C95.8910993,47.8186355 94.2737009,47.4841933 92.6553783,46.8716755 C91.9307839,46.5992366 90.3605211,45.8101033 89.6969257,45.3901716 C86.6386564,43.4445822 84.2162557,40.4374205 82.9611546,37.0328739 C81.4232398,32.8636194 81.57851,28.2058539 83.3844509,24.1521511 C84.2541491,22.1915305 85.6414148,20.2262128 87.1516027,18.8208039 C89.9039526,16.2542416 93.0454024,14.7952844 96.7330707,14.3697161 C97.5140431,14.27859 99.8236879,14.3077128 100.576009,14.4129305 C103.234088,14.7952844 105.477188,15.6511183 107.607533,17.0950444 C111.078932,19.4427161 113.524438,22.9609355 114.52168,27.0296694 C114.879356,28.4933239 114.992112,29.4872561 114.992112,31.1275261 C114.987491,32.4042311 114.955143,32.8636194 114.776767,33.9392833 L114.776767,33.9392833 Z" id="Imported-Layers" fill="#FFFFFF" sketch:type="MSShapeGroup"></path>
                <g id="Imported-Layers-Copy" transform="translate(0.000000, 103.833333)" sketch:type="MSShapeGroup">
                    <path d="M170.386317,22.8497726 C170.361561,22.8714814 170.341756,22.8907782 170.314524,22.912487 L170.319476,22.912487 C170.344232,22.8883661 170.361561,22.8690693 170.386317,22.8497726" id="Fill-1" fill="#000000"></path>
                    <path d="M170.314524,22.9173112 L170.314524,22.912487 C158.226122,34.712454 144.870207,42.2213047 126.585354,39.4136265 C123.112073,38.8853778 119.643744,38.4729096 116.219976,37.9567213 C119.643744,38.4801459 123.109598,38.890202 126.585354,39.4160386 C144.867732,42.2261289 158.226122,34.7172782 170.314524,22.9173112" id="Fill-2" fill="#000000"></path>
                    <path d="M99.5863537,33.3182633 C99.7200366,32.0687983 99.8413415,30.8217454 99.9824512,29.5746924 C99.9799756,29.5722804 99.9775,29.5722804 99.9775,29.5722804 C99.8388659,30.8193333 99.717561,32.0712104 99.5863537,33.3182633" id="Fill-3" fill="#000000"></path>
                    <path d="M180.865573,13.4281309 C186.448073,9.46747148 195.04339,10.2538143 198.385463,14.450859 C200.554098,17.1813502 201.051695,21.0551742 200.0565,24.7553273 C201.054171,21.0551742 200.554098,17.176526 198.385463,14.4460348 C195.045866,10.2514022 186.453024,9.46505939 180.865573,13.4233067 C177.050659,16.1248527 173.74572,19.5693239 170.388793,22.8473605 C173.74572,19.5693239 177.048183,16.132089 180.865573,13.4281309" id="Fill-4" fill="#000000"></path>
                    <path d="M50.7252439,3.65914758 C55.3868171,1.27117388 62.1576098,1.98515389 67.8515122,2.46516073 C87.3320854,4.08367623 106.780476,6.18461067 126.221439,8.22041855 C130.91272,8.70524958 135.663415,9.25761925 140.221012,10.4274852 C145.914915,11.8723298 149.5095,15.4060485 148.957439,21.6774946 C148.803951,23.4262632 148.249415,25.1123174 147.370573,26.6271128 C148.249415,25.1123174 148.806427,23.4262632 148.964866,21.6750825 C149.511976,15.393988 145.91739,11.8675057 140.221012,10.4202489 C135.663415,9.24797087 130.915195,8.70042539 126.22639,8.21318227 C106.780476,6.18219858 87.3320854,4.07885205 67.8539878,2.45792444 C62.162561,1.97550551 55.3917683,1.26393759 50.7301951,3.65191129 C34.3243293,12.0604732 18.4061585,21.3590981 2.45085366,30.6046569 C18.4061585,21.3639223 34.3243293,12.0652974 50.7252439,3.65914758" id="Fill-5" fill="#000000"></path>
                    <path d="M65.8314146,64.0411128 C90.2755854,65.2278634 114.821256,64.0604096 139.327317,64.4873503 C149.969963,64.6851421 158.956427,62.6276254 167.004634,55.25144 C175.867317,47.1299173 185.752427,40.0817767 195.110232,32.4523214 C197.603171,30.4092772 199.281634,27.6377804 200.0565,24.7601515 C199.281634,27.6353684 197.603171,30.4116893 195.110232,32.4474972 C185.759854,40.0793646 175.872268,47.1275052 167.004634,55.2490279 C158.956427,62.6276254 149.969963,64.68273 139.327317,64.4849383 C114.828683,64.0579975 90.2755854,65.2230392 65.8363659,64.0411128 C54.0673171,63.4694464 43.7365976,65.8718927 33.9604146,70.392158 C33.9604146,70.3945701 33.9628902,70.3945701 33.9628902,70.3945701 C43.7415488,65.8718927 54.0697927,63.4694464 65.8314146,64.0411128" id="Fill-6" fill="#000000"></path>
                    <path d="M170.386317,22.8497726 C170.361561,22.8714814 170.341756,22.8907782 170.314524,22.912487 L170.319476,22.912487 C170.344232,22.8883661 170.361561,22.8690693 170.386317,22.8497726" id="Fill-7" fill="#000000"></path>
                    <path d="M137.564683,32.8792621 C133.420512,33.308615 129.108,32.6091075 124.901939,32.189403 C116.586366,31.4030602 108.295549,30.4478707 99.9799756,29.5698683 L99.9799756,29.5771045 C108.298024,30.4502828 116.586366,31.4054723 124.901939,32.1942272 C129.105524,32.6115196 133.418037,33.3182633 137.564683,32.8864984 C141.906902,32.4330246 145.432171,29.9533913 147.373049,26.6271128 C145.429695,29.9509792 141.906902,32.4306125 137.564683,32.8792621" id="Fill-8" fill="#000000"></path>
                    <path d="M99.5863537,33.3182633 C104.87178,35.9064409 110.481512,37.0859552 116.222451,37.9543092 C110.481512,37.0835431 104.869305,35.9064409 99.5863537,33.3182633" id="Fill-9" fill="#000000"></path>
                    <path d="M140.223488,10.4274852 C135.66589,9.25761925 130.91272,8.70524958 126.223915,8.22041855 C106.780476,6.18219858 87.334561,4.08367623 67.8539878,2.46516073 C62.1600854,1.9827418 55.3892927,1.26876178 50.7277195,3.65914758 C34.3268049,12.0652974 18.4061585,21.3663344 2.45332927,30.6046569 C10.1227683,45.8756281 20.8891951,59.3978306 33.9628902,70.3897459 C43.7415488,65.8694806 54.0722683,63.4670343 65.8388415,64.0387007 C90.278061,65.218215 114.831159,64.0555854 139.329793,64.4825262 C149.972439,64.6803179 158.958902,62.6228012 167.00711,55.2466158 C175.872268,47.1250931 185.759854,40.0769525 195.112707,32.4450851 C197.605646,30.4092772 199.28411,27.6353684 200.058976,24.7577394 C201.054171,21.0575863 200.556573,17.1813502 198.387939,14.4532711 C195.04339,10.2562264 186.450549,9.47229567 180.868049,13.430543 C177.050659,16.132089 173.748195,19.571736 170.391268,22.8497726 C170.366512,22.8714814 170.346707,22.8907782 170.324427,22.912487 C170.324427,22.912487 170.324427,22.912487 170.319476,22.912487 L170.319476,22.9173112 C158.231073,34.7172782 144.872683,42.2261289 126.590305,39.4160386 C123.117024,38.8877899 119.648695,38.4777338 116.224927,37.9567213 C110.486463,37.0883673 104.874256,35.908853 99.5888293,33.3206754 C99.7225122,32.0712104 99.8438171,30.8217454 99.9799756,29.5746924 C99.9799756,29.5746924 99.9824512,29.5746924 99.9849268,29.5771045 L99.9849268,29.5698683 C108.3005,30.4478707 116.591317,31.4030602 124.90689,32.189403 C129.112951,32.6091075 133.425463,33.308615 137.569634,32.8792621 C141.911854,32.4306125 145.434646,29.9509792 147.378,26.6271128 C148.254366,25.1123174 148.811378,23.4262632 148.964866,21.6774946 C149.511976,15.4084606 145.914915,11.8723298 140.223488,10.4274852" id="Fill-10" fill="#FFFFFF"></path>
                </g>
            </g>
        </g>
    </g>
</svg>