<?xml version="1.0" encoding="UTF-8" standalone="no"?>
<svg width="210px" height="184px" viewBox="0 0 210 184" version="1.1" xmlns="http://www.w3.org/2000/svg" xmlns:xlink="http://www.w3.org/1999/xlink" xmlns:sketch="http://www.bohemiancoding.com/sketch/ns">
    <!-- Generator: Sketch 3.3.3 (12072) - http://www.bohemiancoding.com/sketch -->
    <title>Imported Layers + Imported Layers Copy</title>
    <desc>Created with Sketch.</desc>
    <defs></defs>
    <g id="Page-1" stroke="none" stroke-width="1" fill="none" fill-rule="evenodd" sketch:type="MSPage">
        <g id="AppIcon~iphone" sketch:type="MSArtboardGroup" transform="translate(-60.000000, -50.000000)">
            <g id="Imported-Layers-+-Imported-Layers-Copy-+-GoGive" sketch:type="MSLayerGroup" transform="translate(0.000000, 50.000000)">
                <g id="Imported-Layers-+-Imported-Layers-Copy" transform="translate(60.000000, 0.000000)" sketch:type="MSShapeGroup">
                    <path d="M136.745616,27.8311466 C133.756348,15.3889163 124.376835,5.31635132 112.321226,1.59230821 C108.293909,0.35096051 103.884152,-0.188411016 99.7290305,0.0584704362 C87.0480549,0.810021202 75.7963476,8.20258388 69.8480549,19.6880246 C66.5358598,26.0811636 65.1504939,33.8326463 66.0890305,40.6541097 C67.4451281,50.4639293 73.6909817,63.3007733 84.4012256,78.3179078 C87.1914696,82.2283513 90.6822013,86.7852475 93.9387866,90.7561721 C96.297811,93.6374472 99.6090305,97.4983162 100.597323,98.5066633 C101.004152,98.9310218 101.103665,99.0063751 101.337811,99.0767711 C101.809031,99.2185544 102.265616,99.147167 102.609031,98.8804557 C103.170006,98.4511397 107.389518,93.536315 110.483177,89.7220462 C124.798299,72.0556457 134.128055,55.8824319 136.858787,44.0043604 C137.529031,41.0923491 137.762201,39.0944931 137.757323,36.3351715 C137.758299,33.3012067 137.454884,30.7679452 136.745616,27.8311466 L136.745616,27.8311466 Z M119.014884,35.8195958 C118.285128,40.2644534 115.866592,44.291893 112.282201,47.0274188 C109.00025,49.5299441 105.032445,50.7663343 100.93586,50.5591125 C99.0792744,50.4678953 97.3719574,50.1149242 95.6636647,49.4684716 C94.8987866,49.180939 93.2412256,48.3480859 92.5407378,47.904889 C89.3124452,45.8515096 86.755372,42.6777444 85.4304939,39.0845782 C83.8070793,34.6843377 83.9709817,29.7685215 85.8773232,25.4902345 C86.795372,23.4209911 88.2597622,21.3467903 89.8539086,19.8635186 C92.7592744,17.1547631 96.075372,15.6149764 99.9680549,15.1658306 C100.792445,15.0696559 103.230494,15.1003922 104.02464,15.2114392 C106.830494,15.6149764 109.198299,16.5182254 111.447079,18.0421483 C115.11147,20.5198862 117.692933,24.2330229 118.745616,28.5271738 C119.123177,30.071918 119.242201,31.1209163 119.242201,32.8520609 C119.237323,34.1994982 119.203177,34.6843377 119.014884,35.8195958 L119.014884,35.8195958 Z" id="Imported-Layers" fill="#F28181"></path>
                    <g id="Imported-Layers-Copy" transform="translate(0.000000, 111.190584)">
                        <path d="M177.716028,22.5110501 C177.689895,22.5339617 177.66899,22.5543275 177.640244,22.5772391 L177.64547,22.5772391 C177.671603,22.5517818 177.689895,22.5314159 177.716028,22.5110501" id="Fill-1" fill="#000000"></path>
                        <path d="M177.640244,22.5823305 L177.640244,22.5772391 C164.879791,35.0309508 150.781359,42.9558086 131.479965,39.9925787 C127.813589,39.4350638 124.152439,38.999744 120.538328,38.4549577 C124.152439,39.0073812 127.810976,39.4401553 131.479965,39.9951245 C150.778746,42.9609 164.879791,35.0360422 177.640244,22.5823305" id="Fill-2" fill="#000000"></path>
                        <path d="M102.979965,33.5595188 C103.12108,32.2408306 103.249129,30.9246881 103.398084,29.6085456 C103.39547,29.6059999 103.392857,29.6059999 103.392857,29.6059999 C103.246516,30.9221424 103.118467,32.2433763 102.979965,33.5595188" id="Fill-3" fill="#000000"></path>
                        <path d="M188.777875,12.5674283 C194.670732,8.38733949 203.743902,9.21724751 207.271777,13.6468179 C209.560976,16.5285844 210.086237,20.6170269 209.035714,24.5221769 C210.08885,20.6170269 209.560976,16.5234929 207.271777,13.6417264 C203.746516,9.21470178 194.675958,8.38479376 188.777875,12.5623369 C184.750871,15.4135546 181.262195,19.0488572 177.718641,22.5085044 C181.262195,19.0488572 184.748258,15.4211918 188.777875,12.5674283" id="Fill-4" fill="#000000"></path>
                        <path d="M51.402439,2.2572214 C56.3231707,-0.263051398 63.4703833,0.490484712 69.4808362,0.997085003 C90.0444251,2.7052699 110.574042,4.92260082 131.095819,7.07119703 C136.047909,7.58288878 141.062718,8.16586097 145.873693,9.40054007 C151.884146,10.9254324 155.678571,14.654927 155.095819,21.2738253 C154.933798,23.1194796 154.348432,24.8989449 153.420732,26.4976634 C154.348432,24.8989449 154.936411,23.1194796 155.103659,21.2712795 C155.681185,14.6421984 151.88676,10.9203409 145.873693,9.39290288 C141.062718,8.15567805 136.050523,7.57779732 131.101045,7.06355984 C110.574042,4.92005509 90.0444251,2.70017844 69.4834495,0.989447812 C63.4756098,0.480301792 56.3283972,-0.270688589 51.4076655,2.24958421 C34.0897213,11.1239994 17.2865854,20.9377889 0.444250871,30.6955724 C17.2865854,20.9428804 34.0897213,11.1290908 51.402439,2.2572214" id="Fill-5" fill="#000000"></path>
                        <path d="M67.3484321,65.9844831 C93.1515679,67.2369823 119.061847,66.0048489 144.930314,66.4554431 C156.164634,66.664193 165.650697,64.4926852 174.146341,56.7078426 C183.501742,48.1363693 193.936411,40.697746 203.81446,32.6456016 C206.445993,30.4893682 208.21777,27.5643244 209.035714,24.5272683 C208.21777,27.5617786 206.445993,30.491914 203.81446,32.6405102 C193.944251,40.6952002 183.506969,48.1338236 174.146341,56.7052969 C165.650697,64.4926852 156.164634,66.6616473 144.930314,66.4528974 C119.069686,66.0023032 93.1515679,67.2318908 67.3536585,65.9844831 C54.9303136,65.381145 44.0252613,67.9166922 33.7055749,72.6873904 C33.7055749,72.6899362 33.7081882,72.6899362 33.7081882,72.6899362 C44.0304878,67.9166922 54.9329268,65.381145 67.3484321,65.9844831" id="Fill-6" fill="#000000"></path>
                        <path d="M177.716028,22.5110501 C177.689895,22.5339617 177.66899,22.5543275 177.640244,22.5772391 L177.64547,22.5772391 C177.671603,22.5517818 177.689895,22.5314159 177.716028,22.5110501" id="Fill-7" fill="#000000"></path>
                        <path d="M143.069686,33.0961959 C138.695122,33.5493358 134.142857,32.8110741 129.702962,32.3681171 C120.925087,31.5382091 112.173345,30.5300999 103.39547,29.6034542 L103.39547,29.6110914 C112.175958,30.5326457 120.925087,31.5407548 129.702962,32.3732085 C134.140244,32.8136198 138.692509,33.5595188 143.069686,33.1038331 C147.65331,32.6252358 151.374564,30.0082253 153.423345,26.4976634 C151.371951,30.0056795 147.65331,32.6226901 143.069686,33.0961959" id="Fill-8" fill="#000000"></path>
                        <path d="M102.979965,33.5595188 C108.559233,36.2910872 114.480836,37.5359492 120.540941,38.452412 C114.480836,37.5334034 108.55662,36.2910872 102.979965,33.5595188" id="Fill-9" fill="#000000"></path>
                        <path d="M145.876307,9.40054007 C141.065331,8.16586097 136.047909,7.58288878 131.098432,7.07119703 C110.574042,4.92005509 90.0470383,2.7052699 69.4834495,0.997085003 C63.4729965,0.487938982 56.325784,-0.265597129 51.4050523,2.2572214 C34.0923345,11.1290908 17.2865854,20.9454261 0.446864111,30.6955724 C8.54268293,46.8125897 19.9076655,61.0839526 33.7081882,72.6848447 C44.0304878,67.9141465 54.9355401,65.3785993 67.3562718,65.9819373 C93.1541812,67.2267994 119.0723,65.9997575 144.932927,66.4503517 C156.167247,66.6591016 165.65331,64.4875938 174.148955,56.7027511 C183.506969,48.1312779 193.944251,40.6926545 203.817073,32.6379645 C206.448606,30.4893682 208.220383,27.5617786 209.038328,24.5247226 C210.08885,20.6195726 209.563589,16.5285844 207.27439,13.6493636 C203.743902,9.21979324 194.673345,8.39243095 188.780488,12.5699741 C184.750871,15.4211918 181.264808,19.0514029 177.721254,22.5110501 C177.695122,22.5339617 177.674216,22.5543275 177.650697,22.5772391 C177.650697,22.5772391 177.650697,22.5772391 177.64547,22.5772391 L177.64547,22.5823305 C164.885017,35.0360422 150.783972,42.9609 131.485192,39.9951245 C127.818815,39.4376096 124.157666,39.0048354 120.543554,38.4549577 C114.486063,37.5384949 108.561847,36.2936329 102.982578,33.5620645 C103.123693,32.2433763 103.251742,30.9246881 103.39547,29.6085456 C103.39547,29.6085456 103.398084,29.6085456 103.400697,29.6110914 L103.400697,29.6034542 C112.178571,30.5300999 120.930314,31.5382091 129.708188,32.3681171 C134.148084,32.8110741 138.700348,33.5493358 143.074913,33.0961959 C147.658537,32.6226901 151.377178,30.0056795 153.428571,26.4976634 C154.353659,24.8989449 154.941638,23.1194796 155.103659,21.2738253 C155.681185,14.6574727 151.884146,10.9254324 145.876307,9.40054007" id="Fill-10" fill="#F28181"></path>
                    </g>
                </g>
            </g>
        </g>
    </g>
</svg>